M48
; DRILL file {KiCad 9.0.6} date 2026-01-12T11:56:14-0300
; FORMAT={-:-/ absolute / metric / decimal}
; #@! TF.CreationDate,2026-01-12T11:56:14-03:00
; #@! TF.GenerationSoftware,Kicad,Pcbnew,9.0.6
; #@! TF.FileFunction,Plated,1,2,PTH
FMAT,2
METRIC
; #@! TA.AperFunction,Plated,PTH,ViaDrill
T1C0.400
; #@! TA.AperFunction,Plated,PTH,ComponentDrill
T2C0.800
; #@! TA.AperFunction,Plated,PTH,ComponentDrill
T3C0.920
; #@! TA.AperFunction,Plated,PTH,ComponentDrill
T4C1.000
; #@! TA.AperFunction,Plated,PTH,ComponentDrill
T5C1.300
; #@! TA.AperFunction,Plated,PTH,ComponentDrill
T6C2.300
%
G90
G05
T1
X65.38Y-53.307
X65.38Y-143.307
X205.38Y-53.307
X205.38Y-143.307
T2
X85.532Y-61.519
X90.532Y-61.519
X134.284Y-61.514
X139.284Y-61.514
X183.036Y-61.51
X188.036Y-61.51
T3
X99.218Y-62.734
X101.718Y-62.734
X103.718Y-62.734
X106.218Y-62.734
X147.97Y-62.729
X150.47Y-62.729
X152.47Y-62.729
X154.97Y-62.729
X196.722Y-62.725
X199.222Y-62.725
X201.222Y-62.725
X203.722Y-62.725
T4
X76.974Y-68.08
X76.974Y-70.62
X76.974Y-73.16
X76.974Y-75.7
X77.368Y-96.215
X77.368Y-101.295
X87.224Y-79.502
X87.224Y-87.102
X88.903Y-96.317
X88.903Y-101.397
X98.603Y-68.377
X101.143Y-68.377
X103.683Y-68.377
X104.732Y-96.492
X104.732Y-101.572
X106.223Y-68.377
X125.726Y-68.076
X125.726Y-70.616
X125.726Y-73.156
X125.726Y-75.696
X126.12Y-96.211
X126.12Y-101.291
X135.976Y-79.498
X135.976Y-87.098
X137.655Y-96.312
X137.655Y-101.392
X147.355Y-68.372
X149.895Y-68.372
X152.435Y-68.372
X153.484Y-96.488
X153.484Y-101.568
X154.975Y-68.372
X174.478Y-68.072
X174.478Y-70.612
X174.478Y-73.152
X174.478Y-75.692
X174.872Y-96.206
X174.872Y-101.286
X184.728Y-79.493
X184.728Y-87.093
X186.407Y-96.308
X186.407Y-101.388
X196.107Y-68.368
X198.647Y-68.368
X201.187Y-68.368
X202.236Y-96.483
X202.236Y-101.563
X203.727Y-68.368
T5
X65.149Y-113.894
X65.149Y-126.094
X66.122Y-136.512
X67.44Y-90.86
X67.44Y-100.86
X71.122Y-136.512
X71.149Y-111.894
X76.122Y-136.512
X77.149Y-113.894
X77.149Y-126.094
X81.081Y-113.894
X81.081Y-126.094
X82.053Y-136.512
X87.053Y-136.512
X87.081Y-111.894
X92.053Y-136.512
X93.081Y-113.894
X93.081Y-126.094
X97.012Y-113.894
X97.012Y-126.094
X97.985Y-136.512
X102.985Y-136.512
X103.012Y-111.894
X107.985Y-136.512
X109.012Y-113.894
X109.012Y-126.094
X113.901Y-113.889
X113.901Y-126.089
X114.874Y-136.508
X116.192Y-90.855
X116.192Y-100.855
X119.874Y-136.508
X119.901Y-111.889
X124.874Y-136.508
X125.901Y-113.889
X125.901Y-126.089
X129.833Y-113.889
X129.833Y-126.089
X130.805Y-136.508
X135.805Y-136.508
X135.833Y-111.889
X140.805Y-136.508
X141.833Y-113.889
X141.833Y-126.089
X145.764Y-113.889
X145.764Y-126.089
X146.737Y-136.508
X151.737Y-136.508
X151.764Y-111.889
X156.737Y-136.508
X157.764Y-113.889
X157.764Y-126.089
X162.653Y-113.885
X162.653Y-126.085
X163.626Y-136.503
X164.944Y-90.851
X164.944Y-100.851
X168.626Y-136.503
X168.653Y-111.885
X173.626Y-136.503
X174.653Y-113.885
X174.653Y-126.085
X178.585Y-113.885
X178.585Y-126.085
X179.557Y-136.503
X184.557Y-136.503
X184.585Y-111.885
X189.557Y-136.503
X190.585Y-113.885
X190.585Y-126.085
X194.516Y-113.885
X194.516Y-126.085
X195.489Y-136.503
X200.489Y-136.503
X200.516Y-111.885
X205.489Y-136.503
X206.516Y-113.885
X206.516Y-126.085
T6
X96.148Y-60.024
X109.288Y-60.024
X144.9Y-60.019
X158.04Y-60.019
X193.652Y-60.015
X206.792Y-60.015
M30
