M48
; DRILL file {KiCad 9.0.6} date 2025-12-29T15:44:03-0300
; FORMAT={-:-/ absolute / metric / decimal}
; #@! TF.CreationDate,2025-12-29T15:44:03-03:00
; #@! TF.GenerationSoftware,Kicad,Pcbnew,9.0.6
; #@! TF.FileFunction,Plated,1,2,PTH
FMAT,2
METRIC
; #@! TA.AperFunction,Plated,PTH,ViaDrill
T1C0.400
; #@! TA.AperFunction,Plated,PTH,ComponentDrill
T2C1.000
; #@! TA.AperFunction,Plated,PTH,ComponentDrill
T3C1.300
%
G90
G05
T1
X112.476Y-55.644
X112.476Y-145.644
X252.476Y-55.644
X252.476Y-145.644
T2
X136.754Y-82.004
X136.754Y-84.544
X136.754Y-117.704
X136.754Y-120.244
X139.294Y-82.004
X139.294Y-84.544
X139.294Y-117.704
X139.294Y-120.244
X141.834Y-82.004
X141.834Y-84.544
X141.834Y-117.704
X141.834Y-120.244
X144.374Y-82.004
X144.374Y-84.544
X144.374Y-117.704
X144.374Y-120.244
X146.914Y-82.004
X146.914Y-117.704
X146.914Y-120.244
X149.454Y-82.004
X149.454Y-84.544
X149.454Y-120.244
X151.994Y-82.004
X151.994Y-84.544
X151.994Y-120.244
X159.614Y-93.724
X159.614Y-96.264
X159.614Y-98.804
X159.614Y-101.344
X159.614Y-103.884
X159.614Y-106.424
X159.614Y-108.964
X162.154Y-93.724
X162.154Y-96.264
X162.154Y-98.804
X162.154Y-101.344
X162.154Y-103.884
X162.154Y-106.424
X162.154Y-108.964
T3
X157.176Y-83.312
X163.676Y-83.312
M30
